<svg width="150" height="17" fill="none" xmlns="http://www.w3.org/2000/svg"><path d="M8.035.333c.145-.444.82-.444.965 0l1.93 5.786c.064.199.755 0 .964 0h5.788c.467 0 .378.69 0 .965L12.86 9.976c-.17.122-.065.765 0 .964l1.93 5.786c.143.444-.588.274-.966 0L9 13.834c-.17-.123.17-.123 0 0l-4.823 2.893c-.378.274-1.11.444-.965 0l1.93-5.786c.064-.199.168-.842 0-.965L.317 7.083c-.378-.274-.467-.964 0-.964h5.788c.209 0 .9.199.965 0L8.035.333zm33 0c.145-.444.82-.444.965 0l1.93 5.786c.064.199.755 0 .964 0h5.788c.467 0 .378.69 0 .965L45.86 9.976c-.17.122-.065.765 0 .964l1.93 5.786c.143.444-.588.274-.966 0L42 13.834c-.17-.123.17-.123 0 0l-4.823 2.893c-.378.274-1.11.444-.965 0l1.93-5.786c.064-.199.168-.842 0-.965l-4.824-2.893c-.378-.274-.467-.964 0-.964h5.788c.209 0 .9.199.965 0l.964-5.786zm33 0c.145-.444.82-.444.965 0l1.93 5.786c.064.199.755 0 .964 0h5.788c.467 0 .378.69 0 .965L78.86 9.976c-.17.122-.065.765 0 .964l1.93 5.786c.144.444-.588.274-.966 0L75 13.834c-.17-.123.17-.123 0 0l-4.823 2.893c-.378.274-1.11.444-.965 0l1.93-5.786c.064-.199.168-.842 0-.965l-4.824-2.893c-.378-.274-.467-.964 0-.964h5.788c.209 0 .9.199.965 0l.964-5.786zm33 0c.145-.444.821-.444.965 0l1.929 5.786c.065.199.756 0 .965 0h5.788c.467 0 .378.69 0 .965l-4.823 2.893c-.169.122-.065.765 0 .964l1.929 5.786c.145.444-.587.274-.965 0L108 13.834c-.169-.123.169-.123 0 0l-4.823 2.893c-.378.274-1.109.444-.965 0l1.929-5.786c.065-.199.169-.842 0-.965l-4.823-2.893c-.378-.274-.467-.964 0-.964h5.788c.209 0 .9.199.965 0l.964-5.786zm33 0c.145-.444.821-.444.965 0l1.929 5.786c.065.199.756 0 .965 0h5.788c.467 0 .378.69 0 .965l-4.823 2.893c-.169.122-.065.765 0 .964l1.929 5.786c.145.444-.587.274-.965 0L141 13.834c-.169-.123.169-.123 0 0l-4.823 2.893c-.378.274-1.109.444-.965 0l1.929-5.786c.065-.199.169-.842 0-.965l-4.823-2.893c-.378-.274-.467-.964 0-.964h5.788c.209 0 .9.199.965 0l.964-5.786z" fill="#FFBC0F"/></svg>